{
  "source": "C:\\Users\\Peter\\Desktop\\stuff\\MIUN\\quantitative_research\\video_compression\\videos\\BVI-HD\\BVI-HD_CDVL_videos\\ORIG\\SmokeGuns_1920x1080_60fps.mp4",
  "output": "C:\\Users\\Peter\\Desktop\\stuff\\MIUN\\quantitative_research\\video_compression\\compressed_videos\\BVI-HD\\h264\\4\\SmokeGuns_1920x1080_60fps_h264.mp4",
  "codec": "h264",
  "ok": "Input #0, mov,mp4,m4a,3gp,3g2,mj2, from 'C:\\Users\\Peter\\Desktop\\stuff\\MIUN\\quantitative_research\\video_compression\\videos\\BVI-HD\\BVI-HD_CDVL_videos\\ORIG\\SmokeGuns_1920x1080_60fps.mp4':\n  Metadata:\n    major_brand     : isom\n    minor_version   : 512\n    compatible_brands: isomiso2avc1mp41\n    encoder         : Lavf54.28.101\n  Duration: 00:00:05.00, start: 0.000000, bitrate: 384353 kb/s\n  Stream #0:0[0x1](und): Video: h264 (High 4:4:4 Predictive) (avc1 / 0x31637661), yuv420p(progressive), 1920x1080, 384348 kb/s, 60 fps, 60 tbr, 60 tbn (default)\n    Metadata:\n      handler_name    : VideoHandler\n      vendor_id       : [0][0][0][0]\n[out#0/mp4 @ 000001999cd69c00] Codec AVOption b:a (set bitrate (in bits/s)) has not been used for any stream. The most likely reason is either wrong type (e.g. a video option with no video streams) or that it is a private option of some decoder which was not actually used for any stream.\nStream mapping:\n  Stream #0:0 -> #0:0 (h264 (native) -> h264 (libx264))\nPress [q] to stop, [?] for help\n[libx264 @ 000001999d340ac0] using cpu capabilities: MMX2 SSE2Fast SSSE3 SSE4.2 AVX FMA3 BMI2 AVX2\n[libx264 @ 000001999d340ac0] profile High, level 5.0, 4:2:0, 8-bit\n[libx264 @ 000001999d340ac0] 264 - core 165 r3222 b35605a - H.264/MPEG-4 AVC codec - Copyleft 2003-2025 - http://www.videolan.org/x264.html - options: cabac=1 ref=5 deblock=1:0:0 analyse=0x3:0x113 me=hex subme=8 psy=1 psy_rd=1.00:0.00 mixed_ref=1 me_range=16 chroma_me=1 trellis=2 8x8dct=1 cqm=0 deadzone=21,11 fast_pskip=1 chroma_qp_offset=-2 threads=18 lookahead_threads=3 sliced_threads=0 nr=0 decimate=1 interlaced=0 bluray_compat=0 constrained_intra=0 bframes=3 b_pyramid=2 b_adapt=1 b_bias=0 direct=3 weightb=1 open_gop=0 weightp=2 keyint=250 keyint_min=25 scenecut=40 intra_refresh=0 rc_lookahead=50 rc=cbr mbtree=1 bitrate=4000 ratetol=1.0 qcomp=0.60 qpmin=0 qpmax=69 qpstep=4 vbv_maxrate=4000 vbv_bufsize=4000 nal_hrd=none filler=0 ip_ratio=1.40 aq=1:1.00\nOutput #0, mp4, to 'C:\\Users\\Peter\\Desktop\\stuff\\MIUN\\quantitative_research\\video_compression\\compressed_videos\\BVI-HD\\h264\\4\\SmokeGuns_1920x1080_60fps_h264.mp4':\n  Metadata:\n    major_brand     : isom\n    minor_version   : 512\n    compatible_brands: isomiso2avc1mp41\n    encoder         : Lavf62.3.100\n  Stream #0:0(und): Video: h264 (avc1 / 0x31637661), yuv420p(tv, progressive), 1920x1080, q=2-31, 4000 kb/s, 60 fps, 15360 tbn (default)\n    Metadata:\n      encoder         : Lavc62.11.100 libx264\n      handler_name    : VideoHandler\n      vendor_id       : [0][0][0][0]\n    Side data:\n      cpb: bitrate max/min/avg: 4000000/0/4000000 buffer size: 4000000 vbv_delay: N/A\nframe=    0 fps=0.0 q=0.0 size=       0KiB time=N/A bitrate=N/A speed=N/A elapsed=0:00:00.52    \nframe=    0 fps=0.0 q=0.0 size=       0KiB time=N/A bitrate=N/A speed=N/A elapsed=0:00:01.07    \nframe=   28 fps= 17 q=36.0 size=       0KiB time=00:00:00.43 bitrate=   0.9kbits/s speed=0.267x elapsed=0:00:01.62    \nframe=   56 fps= 26 q=34.0 size=     256KiB time=00:00:00.90 bitrate=2330.6kbits/s speed=0.416x elapsed=0:00:02.16    \nframe=   85 fps= 31 q=34.0 size=     256KiB time=00:00:01.33 bitrate=1573.2kbits/s speed=0.494x elapsed=0:00:02.69    \nframe=  113 fps= 35 q=35.0 size=     512KiB time=00:00:01.85 bitrate=2267.4kbits/s speed=0.568x elapsed=0:00:03.25    \nframe=  144 fps= 38 q=34.0 size=     768KiB time=00:00:02.30 bitrate=2735.6kbits/s speed=0.602x elapsed=0:00:03.82    \nframe=  170 fps= 39 q=34.0 size=    1024KiB time=00:00:02.76 bitrate=3032.2kbits/s speed=0.632x elapsed=0:00:04.38    \nframe=  200 fps= 41 q=35.0 size=    1280KiB time=00:00:03.30 bitrate=3177.6kbits/s speed=0.67x elapsed=0:00:04.92    \nframe=  233 fps= 43 q=34.0 size=    1536KiB time=00:00:03.85 bitrate=3268.4kbits/s speed=0.704x elapsed=0:00:05.46    \nframe=  263 fps= 44 q=34.0 size=    1792KiB time=00:00:04.35 bitrate=3374.8kbits/s speed=0.726x elapsed=0:00:05.99    \n[mp4 @ 000001999cd7a600] Starting second pass: moving the moov atom to the beginning of the file\n[out#0/mp4 @ 000001999cd69c00] video:2021KiB audio:0KiB subtitle:0KiB other streams:0KiB global headers:0KiB muxing overhead: 0.216071%\nframe=  300 fps= 47 q=-1.0 Lsize=    2025KiB time=00:00:04.96 bitrate=3340.2kbits/s speed=0.777x elapsed=0:00:06.39    \n[libx264 @ 000001999d340ac0] frame I:2     Avg QP:30.08  size: 53168\n[libx264 @ 000001999d340ac0] frame P:76    Avg QP:31.46  size: 16658\n[libx264 @ 000001999d340ac0] frame B:222   Avg QP:34.87  size:  3136\n[libx264 @ 000001999d340ac0] consecutive B-frames:  1.3%  0.0%  0.0% 98.7%\n[libx264 @ 000001999d340ac0] mb I  I16..4: 35.3% 62.4%  2.4%\n[libx264 @ 000001999d340ac0] mb P  I16..4:  4.2%  4.9%  0.0%  P16..4: 41.2%  5.4%  2.5%  0.0%  0.0%    skip:41.7%\n[libx264 @ 000001999d340ac0] mb B  I16..4:  0.2%  0.1%  0.0%  B16..8: 28.9%  0.8%  0.1%  direct: 0.3%  skip:69.7%  L0:29.2% L1:69.3% BI: 1.5%\n[libx264 @ 000001999d340ac0] 8x8 transform intra:54.5% inter:94.3%\n[libx264 @ 000001999d340ac0] direct mvs  spatial:95.5% temporal:4.5%\n[libx264 @ 000001999d340ac0] coded y,uvDC,uvAC intra: 31.8% 47.1% 7.6% inter: 4.0% 4.5% 0.1%\n[libx264 @ 000001999d340ac0] i16 v,h,dc,p: 21% 20%  9% 50%\n[libx264 @ 000001999d340ac0] i8 v,h,dc,ddl,ddr,vr,hd,vl,hu: 10%  8%  9% 10% 13% 13% 13% 13% 12%\n[libx264 @ 000001999d340ac0] i4 v,h,dc,ddl,ddr,vr,hd,vl,hu: 10%  7%  2% 10% 17% 16% 14% 11% 12%\n[libx264 @ 000001999d340ac0] i8c dc,h,v,p: 61% 16% 14%  9%\n[libx264 @ 000001999d340ac0] Weighted P-Frames: Y:0.0% UV:0.0%\n[libx264 @ 000001999d340ac0] ref P L0: 51.0% 22.0% 17.8%  4.0%  5.1%\n[libx264 @ 000001999d340ac0] ref B L0: 88.6%  8.4%  2.3%  0.7%\n[libx264 @ 000001999d340ac0] ref B L1: 95.9%  4.1%\n[libx264 @ 000001999d340ac0] kb/s:3309.54\n",
  "seconds": 6.619760990142822,
  "probe_out": {}
}